<?xml version="1.0" encoding="UTF-8" standalone="no"?>
<!-- Created with Inkscape (http://www.inkscape.org/) -->

<svg
   xmlns:dc="http://purl.org/dc/elements/1.1/"
   xmlns:cc="http://creativecommons.org/ns#"
   xmlns:rdf="http://www.w3.org/1999/02/22-rdf-syntax-ns#"
   xmlns:svg="http://www.w3.org/2000/svg"
   xmlns="http://www.w3.org/2000/svg"
   xmlns:sodipodi="http://sodipodi.sourceforge.net/DTD/sodipodi-0.dtd"
   xmlns:inkscape="http://www.inkscape.org/namespaces/inkscape"
   width="305.22427"
   height="108.02877"
   id="svg3203"
   version="1.1"
   inkscape:version="0.48.3.1 r9886"
   sodipodi:docname="Nouveau document 3">
  <defs
     id="defs3205" />
  <sodipodi:namedview
     id="base"
     pagecolor="#ffffff"
     bordercolor="#666666"
     borderopacity="1.0"
     inkscape:pageopacity="0.0"
     inkscape:pageshadow="2"
     inkscape:zoom="0.35"
     inkscape:cx="136.18356"
     inkscape:cy="-25.985608"
     inkscape:document-units="px"
     inkscape:current-layer="layer1"
     showgrid="false"
     fit-margin-top="0"
     fit-margin-left="0"
     fit-margin-right="0"
     fit-margin-bottom="0"
     inkscape:window-width="558"
     inkscape:window-height="420"
     inkscape:window-x="3"
     inkscape:window-y="48"
     inkscape:window-maximized="0" />
  <metadata
     id="metadata3208">
    <rdf:RDF>
      <cc:Work
         rdf:about="">
        <dc:format>image/svg+xml</dc:format>
        <dc:type
           rdf:resource="http://purl.org/dc/dcmitype/StillImage" />
        <dc:title></dc:title>
      </cc:Work>
    </rdf:RDF>
  </metadata>
  <g
     inkscape:label="Calque 1"
     inkscape:groupmode="layer"
     id="layer1"
     transform="translate(-238.81644,-398.34781)">
    <g
       style="display:inline"
       transform="matrix(1.1894449,0,0,1.1894449,-263.7862,-463.06649)"
       id="g4441">
      <path
         inkscape:connector-curvature="0"
         sodipodi:nodetypes="csc"
         id="path4416"
         d="m 438.80422,778.86408 c 23.95098,16.72766 63.10891,20.14923 99.22546,10.64487 54.39954,-14.31566 92.38233,-27.37254 136.10235,-20.14923"
         style="fill:none;stroke:#000000;stroke-width:0.66530478px;stroke-linecap:butt;stroke-linejoin:miter;stroke-opacity:1" />
      <path
         inkscape:connector-curvature="0"
         sodipodi:nodetypes="czccscscscscscccccscscscscscz"
         d="m 426.60925,766.30561 c 2.78096,1.08592 3.15858,1.75546 3.67528,2.19868 0.5167,0.44323 1.01075,0.80521 1.51614,1.20781 0.57918,0.50867 1.15836,1.01734 1.73755,1.52601 3.17029,2.84996 6.40314,5.64865 10.0436,7.89183 3.21374,1.98024 4.38785,2.43138 7.86113,4.10834 9.63283,4.33918 19.9057,7.30684 30.38876,8.68119 2.62283,0.34386 5.266,0.50907 7.89899,0.7636 12.36668,0.87286 24.75612,-0.20885 36.94312,-2.34584 8.35536,-1.46512 12.96673,-2.67906 21.26583,-4.63179 14.84052,-3.67993 29.46702,-8.15502 44.30927,-11.8286 10.28322,-2.54519 10.87215,-2.56698 21.11534,-4.69058 13.91079,-2.67916 28.04928,-4.22905 42.22588,-4.14565 2.03664,0.012 4.07162,0.11928 6.10742,0.17892 4.40732,0.23069 8.80435,0.58331 13.18696,1.1001 4.13672,0.30012 4.39941,1.22347 4.24768,3.91817 -2.78806,2.39159 -5.33983,2.57075 -8.36337,1.83934 -4.86473,-1.13763 -9.83107,-1.78917 -14.79479,-2.30306 -1.93252,-0.12816 -3.86237,-0.30624 -5.79755,-0.38449 -13.671,-0.55273 -27.35201,0.70821 -40.80174,3.136 -10.03775,1.99537 -10.73366,2.02662 -20.81857,4.47414 -14.87713,3.61055 -29.51918,8.09313 -44.35598,11.85726 -8.18479,1.97787 -13.37372,3.35111 -21.62605,4.87947 -12.46449,2.30847 -25.14894,3.59172 -37.83072,2.88155 -2.69999,-0.22051 -5.40825,-0.35621 -8.09997,-0.66152 -10.81463,-1.22666 -21.46662,-3.97395 -31.54994,-8.05314 -1.46999,-0.64816 -2.96045,-1.25173 -4.40995,-1.94448 -5.25857,-2.51316 -10.09264,-5.79141 -14.44896,-9.65708 -6.97079,-6.6712 -2.40633,-11.08209 0.37464,-9.99618 z"
         id="path4418"
         style="fill:#008000;fill-opacity:1;stroke:none" />
      <path
         inkscape:connector-curvature="0"
         id="text3211"
         d="m 343.58704,-0.79621234 c -1.13034,-0.0429133 -1.66472,-0.87526006 -1.60315,-2.49704266 0.0578,-1.523491 0.55363,-2.2675125 1.48739,-2.2320668 0.54059,0.020526 2.56766,-0.2224209 6.08121,-0.7288418 3.5154,-0.5555581 5.86284,-0.8109503 7.04234,-0.7661775 0.0559,-1.4743424 1.80208,-7.9291369 5.23839,-19.3644029 3.4854,-11.433353 5.25704,-17.911787 5.3149,-19.435322 -1.86753,-0.07085 -3.51762,-0.03507 -4.95026,0.107364 -1.43269,0.142517 -2.29645,0.208156 -2.5913,0.196919 -0.68805,-0.02608 -1.38759,-0.397145 -2.09863,-1.113203 -0.66192,-0.714105 -0.97982,-1.415194 -0.95368,-2.103269 0.0578,-1.523445 0.99592,-2.250675 2.8143,-2.181692 0.34399,0.01311 0.83451,0.05634 1.47155,0.12969 0.637,0.07345 1.10294,0.115744 1.39783,0.12689 1.03202,0.03923 2.065,0.05384 3.09893,0.04382 1.08303,-0.0081 1.96857,9.6e-4 2.65663,0.02703 0.39313,0.01497 0.8628,-0.04102 1.40902,-0.167979 0.59531,-0.124998 0.94212,-0.185655 1.04044,-0.181972 0.2457,0.0094 0.3639,0.136904 0.3546,0.38258 -0.007,0.196628 3.05193,0.632678 9.17829,1.308151 5.73499,0.611496 9.1431,0.937744 10.22434,0.978744 0.88456,0.03363 1.6124,0.307339 2.18353,0.821132 0.57103,0.513883 0.84725,1.016526 0.82864,1.507931 -0.0392,1.032087 -1.53317,1.492136 -4.48181,1.380151 -2.30986,-0.08765 -5.55156,-0.25993 -9.72511,-0.51685 -4.17175,-0.305978 -6.6262,-0.472982 -7.36334,-0.501011 -0.0317,0.835506 -1.8009,6.600406 -5.30747,17.294718 -3.45747,10.696228 -5.23097,17.223807 -5.3205,19.5827563 -0.0336,0.8846145 0.12161,1.3334487 0.46565,1.3465038 1.13031,0.042917 2.58661,-0.074052 4.36891,-0.3509049 1.78226,-0.2768428 3.23856,-0.393811 4.36892,-0.3509049 2.6538,0.1007549 3.96765,0.4951439 3.94156,1.183168 -0.0392,1.0320474 -2.28898,1.9555601 -6.74931,2.7705409 -3.71761,0.6955354 -6.48558,1.0087864 -8.30393,0.9397537 -0.58975,-0.022388 -2.96737,0.3795061 -7.13284,1.2056834 -4.1655,0.8261765 -6.96084,1.21221188 -8.38604,1.15810736 m 79.2509,-0.76721666 c -1.11397,-0.1297972 -4.89045,-0.9259238 -11.32943,-2.3883823 -4.43217,-1.0201719 -8.32586,-1.2762763 -11.68105,-0.7683142 -0.58353,0.088345 -1.19804,0.629046 -1.84354,1.6221048 -0.59688,0.9857001 -1.43021,1.5595293 -2.49998,1.7214895 -1.70192,0.2576633 -2.74797,-0.9020989 -3.13815,-3.4792899 -0.2503,-1.653287 0.0136,-2.5388266 0.79158,-2.6566216 0.97252,-0.1472304 2.14458,-5.5474523 3.51617,-16.2006823 1.42177,-11.307411 1.68726,-19.903012 0.79648,-25.786828 -0.0589,-0.388962 0.0974,-0.835413 0.46873,-1.339354 0.42,-0.511204 0.82451,-0.796278 1.21352,-0.855223 0.48626,-0.07357 1.10658,0.08122 1.86098,0.464368 0.75437,0.383246 1.16837,0.817975 1.242,1.304189 0.63311,4.1819 0.62808,9.405438 -0.0151,15.67063 -0.30978,2.882153 -1.05447,7.819747 -2.23407,14.812798 -0.82723,5.049588 -1.14145,8.230827 -0.94268,9.5437257 2.67444,-0.4048917 6.52094,0.032447 11.53953,1.3120178 5.06719,1.2722227 8.37881,1.7905415 9.93487,1.554958 0.48624,-0.073613 0.93714,-0.2164893 1.35272,-0.42863 0.45679,-0.2681171 0.75813,-0.4132212 0.90404,-0.435313 1.60464,-0.2429336 2.59101,0.8512511 2.95914,3.2825573 0.27235,1.7991718 -0.18824,2.8637182 -1.38178,3.1936423 -0.0487,0.00736 -0.55332,-0.040586 -1.514,-0.1438421 m 32.65676,-33.353223 c 0.0464,0.191202 -0.3982,0.653316 -1.33367,1.386346 -0.89932,0.673691 -1.56404,1.062707 -1.99416,1.16705 -0.71693,0.17397 -1.00671,3.255413 -0.86936,9.244339 0.10534,5.440035 0.29137,8.709672 0.55811,9.808918 -2.67646,0.649401 -4.16543,0.352782 -4.46692,-0.889858 -0.24354,-1.003659 -0.12315,-3.740359 0.36119,-8.210109 0.52049,-4.52911 0.68218,-7.199918 0.48506,-8.012432 -0.0928,-0.382326 -0.25866,-0.544509 -0.49761,-0.486551 -6.51576,2.137644 -10.53834,3.391996 -12.06772,3.763059 0.0696,0.286781 -1.09057,7.602678 -3.48042,21.9477113 -1.09925,0.2667137 -1.64888,0.4000716 -1.64888,0.4000742 -0.85888,0.00596 -1.42167,-0.5406837 -1.68839,-1.6399353 -0.19714,-0.8124919 0.27558,-5.3300202 1.41816,-13.5525992 1.19037,-8.23415 1.73337,-12.566303 1.62901,-12.996471 -0.11597,-0.47791 -0.16881,-4.032899 -0.15853,-10.664979 0.0465,-6.691396 -0.006,-10.347771 -0.15643,-10.969135 0.7169,-0.173898 1.73217,-0.369627 3.04579,-0.587189 0.45225,1.863998 0.6766,4.770088 0.67304,8.718279 -0.0152,3.900476 0.0236,6.041869 0.11642,6.424185 0.0594,0.03623 0.11877,0.07243 0.17817,0.108591 0.0362,-0.05936 0.0782,-0.09485 0.12599,-0.106479 0.084,-0.07095 0.64487,-1.826477 1.68267,-5.266576 1.26938,-4.15411 2.43105,-7.396494 3.48501,-9.727161 1.6113,-3.579169 3.18166,-5.554319 4.71107,-5.925455 1.91173,-0.4638 3.41842,1.574468 4.5201,6.114811 0.27829,1.147094 0.54289,2.550503 0.79381,4.21023 0.28707,1.600425 0.45381,2.496202 0.50022,2.687336 0.16232,0.669151 0.23944,2.446998 0.23134,5.333546 -0.008,2.886618 0.19653,5.190194 0.61403,6.910735 0.0116,0.04782 0.53009,0.09914 1.55557,0.153943 1.01383,0.0071 1.57294,0.225661 1.67733,0.655776 m -9.9262,-21.199876 c -0.76471,0.18559 -2.36004,4.039268 -4.78599,11.561045 -2.38978,7.462461 -3.4629,11.695506 -3.21937,12.699147 2.1985,-0.533407 5.74823,-1.546514 10.6492,-3.039322 0.0232,0.09561 -0.0599,-2.541108 -0.24923,-7.910177 -0.20097,-5.416792 -0.55656,-9.176664 -1.06678,-11.279629 -0.35951,-1.481554 -0.80211,-2.158575 -1.32783,-2.031064 m 34.26713,18.536334 c 0.19487,0.711517 0.1331,1.416827 -0.1853,2.11593 -0.31843,0.699143 -0.8571,1.152646 -1.61602,1.360511 -1.18584,0.324835 -1.99963,-0.319118 -2.44137,-1.931862 -0.18191,-0.664042 -0.35339,-1.662404 -0.51445,-2.99509 -0.11365,-1.345632 -0.22893,-2.231909 -0.34585,-2.658832 -0.18191,-0.664036 -0.46259,-0.944097 -0.84205,-0.840182 -2.37166,0.64966 -4.6239,3.969157 -6.75671,9.9585 -2.08993,5.773658 -2.74512,10.08347 -1.96555,12.929448 0.32481,1.18583 0.3904,1.983736 0.19675,2.393722 -0.14622,0.396996 -0.55136,0.686442 -1.21542,0.868339 -0.4269,0.116935 -0.94897,-0.02052 -1.56622,-0.412354 -0.61725,-0.391836 -1.01033,-0.896069 -1.17924,-1.5127 0.026,0.09487 0.0167,-2.452185 -0.0279,-7.641166 -0.0446,-5.188962 -0.29421,-8.613525 -0.74896,-10.273702 -0.54569,-1.992167 0.20128,-3.267603 2.2409,-3.826312 1.18582,-0.324793 1.98012,0.248011 2.3829,1.718412 0.013,0.04746 0.0523,0.470125 0.11786,1.268011 0.048,0.54777 0.16695,0.795659 0.35668,0.743667 0.0949,-0.02596 0.49289,-0.899868 1.19407,-2.621714 0.86038,-2.071361 1.70613,-3.730799 2.53725,-4.978319 1.27036,-1.877707 2.66448,-3.024457 4.18235,-3.440254 1.61271,-0.44172 2.96383,0.48848 4.05337,2.790602 0.40214,0.909711 1.11643,3.238157 2.14287,6.985345 M 513.552,-74.105003 c 0.0864,0.333297 -0.40914,5.770999 -1.48654,16.313121 -1.08978,10.494587 -1.25207,17.217664 -0.48684,20.169252 0.30852,1.190177 -0.44173,2.019755 -2.25075,2.488736 -1.19019,0.30856 -1.95188,-0.179853 -2.2851,-1.465243 -0.13578,-0.523657 -0.25038,-1.357652 -0.3438,-2.501986 -0.0582,-1.204249 -0.14899,-2.044414 -0.27238,-2.520498 -1.28359,-4.951057 -4.18667,-6.840354 -8.70928,-5.667896 -2.57076,0.666489 -5.071,2.584825 -7.50071,5.755014 -2.39446,3.110279 -3.34485,5.617538 -2.85117,7.521787 0.48133,1.856665 2.1017,3.011577 4.86111,3.464738 2.28157,0.373829 4.68393,0.233679 7.20708,-0.420452 3.09441,-0.802216 5.01102,-1.248287 5.74982,-1.338212 2.00121,-0.315584 3.12525,0.0027 3.37211,0.954806 0.16042,0.618894 -0.12611,1.277446 -0.85958,1.975659 -0.73352,0.698226 -1.62394,1.183097 -2.67127,1.454614 -12.66334,3.282957 -19.87129,1.544371 -21.62384,-5.215763 -0.83925,-3.237231 0.16757,-6.800647 3.02047,-10.690258 2.88816,-3.949516 6.30791,-6.436475 10.25926,-7.460883 1.76143,-0.456623 3.49025,-0.549174 5.18646,-0.277653 1.11079,0.169307 2.28861,0.499037 3.53344,0.989191 1.07729,0.432022 1.66355,0.635677 1.75879,0.610966 0.1428,-0.037 0.17718,-0.198331 0.10315,-0.483997 -0.2592,-0.999709 0.0688,-4.437944 0.98397,-10.314717 0.96274,-5.889037 1.11089,-10.118951 0.44445,-12.689753 -0.59243,-2.285061 -0.41258,-3.551037 0.53958,-3.79793 1.47578,-0.382545 2.56896,-0.183292 3.27955,0.597758 0.37376,0.462016 0.7211,1.311881 1.04202,2.549599"
         style="font-size:70.08200073px;font-style:normal;font-variant:normal;font-weight:normal;font-stretch:normal;text-align:start;line-height:125%;writing-mode:lr-tb;text-anchor:start;fill:#000000;fill-opacity:1;stroke:none;font-family:BethHand;-inkscape-font-specification:BethHand"
         transform="matrix(0.8609625,0,0,0.8609625,177.70117,790.88919)" />
      <path
         inkscape:connector-curvature="0"
         id="text3218"
         d="m 284.53129,-21.069922 c -0.4245,-0.248882 -0.45821,-0.677858 -0.10112,-1.286929 0.33545,-0.572157 0.67851,-0.755438 1.02919,-0.549841 0.20302,0.11903 1.03008,0.442719 2.48119,0.971066 1.46191,0.50989 2.41435,0.894686 2.85732,1.154389 0.32462,-0.553702 2.32132,-2.669177 5.9901,-6.346431 3.68721,-3.666424 5.69855,-5.785717 6.03402,-6.357886 -0.70137,-0.411183 -1.34132,-0.73677 -1.91983,-0.976761 -0.57854,-0.239967 -0.92318,-0.39242 -1.0339,-0.457358 -0.25841,-0.15148 -0.45029,-0.43758 -0.57563,-0.858301 -0.10691,-0.409873 -0.0846,-0.744013 0.0669,-1.002421 0.33543,-0.572143 0.8446,-0.658035 1.52752,-0.257677 0.12918,0.07576 0.30834,0.193199 0.53747,0.352313 0.2291,0.159143 0.39903,0.27117 0.50978,0.336081 0.38758,0.227253 0.78058,0.445264 1.17901,0.654032 0.41685,0.219617 0.75448,0.405165 1.01289,0.556645 0.14764,0.08658 0.33921,0.161693 0.57471,0.22534 0.25393,0.07449 0.39935,0.122555 0.43629,0.144184 0.0923,0.05412 0.11135,0.127311 0.0573,0.219583 -0.0433,0.07384 1.0399,0.870114 3.24962,2.388827 2.07285,1.413709 3.3123,2.239588 3.71838,2.477641 0.33219,0.194784 0.55494,0.449381 0.66824,0.763792 0.11324,0.314424 0.11577,0.563917 0.008,0.748478 -0.22727,0.387596 -0.89459,0.256765 -2.00196,-0.392496 -0.86749,-0.508576 -2.07482,-1.241212 -3.62197,-2.197911 -1.53638,-0.975138 -2.44298,-1.543868 -2.71981,-1.706192 -0.18398,0.313774 -2.04764,2.160034 -5.591,5.538787 -3.52493,3.389582 -5.54709,5.527332 -6.06648,6.413255 -0.19478,0.332219 -0.22757,0.536202 -0.0984,0.611951 0.4245,0.248879 1.00684,0.503497 1.74704,0.763855 0.74018,0.260353 1.32252,0.514971 1.74704,0.763856 0.99665,0.584325 1.41923,1.005686 1.26775,1.264085 -0.22725,0.387585 -1.27963,0.279007 -3.15714,-0.325735 -1.56822,-0.497809 -2.69377,-0.946898 -3.37666,-1.347268 -0.22149,-0.129854 -1.21562,-0.46469 -2.9824,-1.00451 -1.76678,-0.539824 -2.91779,-0.966638 -3.45304,-1.280443 m 25.99755,4.771438 c -0.27501,0.626979 -1.1416,1.777118 -2.59977,3.45042 -1.71084,1.983004 -2.88954,2.832708 -3.53611,2.549114 -0.19593,-0.08594 -0.0833,-0.608941 0.33776,-1.568998 -0.0172,0.03918 0.65483,-0.694001 2.01608,-2.199558 1.38941,-1.516556 2.23452,-2.617712 2.53532,-3.303472 0.19764,-0.450636 0.16912,-0.731817 -0.0856,-0.843541 -0.99925,-0.438283 -2.54059,-0.226568 -4.62401,0.635146 -2.08343,0.861722 -3.34429,1.792203 -3.78257,2.791447 -0.10313,0.235117 -0.3484,0.50134 -0.7358,0.798668 -0.3874,0.297328 -0.67906,0.403023 -0.87499,0.317084 -0.48983,-0.214847 -0.58865,-0.655352 -0.29645,-1.321516 0.10312,-0.235115 0.93276,-1.167839 2.4889,-2.798174 1.58433,-1.641327 2.53118,-2.814666 2.84057,-3.520023 0.15468,-0.352667 0.48674,-0.417284 0.99616,-0.193851 0.58779,0.257824 0.69262,0.817779 0.31449,1.679866 -0.0258,0.05879 -0.13613,0.150562 -0.33102,0.27533 -0.18632,0.105187 -0.28377,0.167574 -0.29236,0.187162 0.002,0.04779 0.0232,0.08027 0.0624,0.09745 0.17633,0.07735 0.9164,-0.06529 2.22023,-0.427915 1.3124,-0.382209 2.39965,-0.384252 3.26175,-0.0061 0.66615,0.292197 0.92292,0.825343 0.77029,1.59944 -0.0358,0.241309 -0.26419,0.841991 -0.68528,1.802047 M 324.91192,-21.715 c -0.17935,0.526577 -0.56188,1.085649 -1.14757,1.677218 -0.70167,0.732916 -1.30565,1.013149 -1.81194,0.840699 -0.2633,-0.08966 -0.30872,-0.387651 -0.13627,-0.893974 0.11035,-0.32403 0.42089,-0.738106 0.93162,-1.242229 0.5176,-0.524352 0.84883,-0.999185 0.9937,-1.424501 0.0828,-0.243018 0.0345,-0.632365 -0.14463,-1.168044 -0.15896,-0.528753 -0.34981,-0.831073 -0.57258,-0.906962 -0.81011,-0.27589 -1.86765,0.04199 -3.1726,0.953628 -1.21663,0.851353 -1.97324,1.712451 -2.26983,2.583298 -0.35869,1.053143 -0.5629,2.28319 -0.61264,3.690146 -0.0351,1.231155 0.0183,1.870871 0.16003,1.919148 0.0202,0.0069 0.31068,0.08322 0.8713,0.228943 0.56751,0.125484 1.04366,0.25375 1.42847,0.3848 1.39741,0.475941 1.99956,0.997444 1.80644,1.56451 -0.22764,0.668337 -0.92598,0.893829 -2.09504,0.676478 -0.25684,-0.04226 -0.97257,-0.263428 -2.14721,-0.663493 -0.24304,-0.08277 -0.74392,0.989735 -1.50266,3.217512 -0.26211,0.769596 -0.63818,1.3760708 -1.1282,1.8194258 -0.48313,0.4231 -0.95759,0.5553281 -1.4234,0.3966846 -0.42531,-0.1448516 -0.5207,-0.5615695 -0.28617,-1.2501547 0.0483,-0.1417681 0.39051,-0.7484627 1.02671,-1.8200867 0.66334,-1.084976 1.07779,-1.870494 1.24334,-2.356559 0.15174,-0.445551 0.12635,-0.702817 -0.0762,-0.771798 -0.74935,-0.255207 -1.59049,-0.439975 -2.52342,-0.554305 -0.93294,-0.11432 -1.4703,-0.195624 -1.61206,-0.243913 -0.48606,-0.165537 -0.59459,-0.643233 -0.32558,-1.433088 0.24141,-0.708831 1.15197,-0.794243 2.73167,-0.256236 0.10126,0.03449 0.25315,0.08623 0.45568,0.155196 0.20252,0.06898 0.34429,0.117267 0.42531,0.14485 0.58731,0.200038 0.90512,0.22917 0.95341,0.0874 0.0207,-0.06075 0.14381,-0.787273 0.36939,-2.17957 0.24581,-1.385381 0.51012,-2.493252 0.79293,-3.323618 0.45524,-1.336654 1.43382,-2.517684 2.93574,-3.543092 1.6243,-1.119302 3.12505,-1.444442 4.50223,-0.975421 0.74933,0.255229 1.24955,0.843727 1.50067,1.765495 0.25108,0.921799 0.20419,1.889004 -0.14067,2.901618 m 8.18798,13.4015277 c -0.44493,1.7633041 -1.83286,2.8914848 -4.16381,3.3845454 -1.82223,0.4007667 -3.64611,0.3708405 -5.47165,-0.089779 -0.85053,-0.2146077 -1.58649,-0.620959 -2.20787,-1.2190551 -0.71463,-0.6657561 -0.98035,-1.3616671 -0.79715,-2.0877351 0.31406,-1.2446808 1.06347,-2.2471239 2.24823,-3.0073319 0.86778,-0.553327 1.91683,-0.950593 3.14717,-1.191799 0.90325,-0.16926 1.47935,-0.222488 1.72829,-0.159683 0.0415,0.01048 0.0649,0.0053 0.0701,-0.01541 0.0105,-0.04148 -0.0205,-0.137547 -0.0928,-0.288194 -0.0671,-0.171378 -0.0928,-0.288187 -0.0771,-0.350429 0.0523,-0.207439 0.43145,-0.354499 1.13736,-0.44118 0.71112,-0.10741 1.34674,-0.09046 1.90686,0.05086 1.05797,0.266958 1.82447,0.945801 2.29949,2.036529 0.475,1.090741 0.56594,2.2169604 0.27283,3.3786624 m -1.49391,-0.2445513 c 0.22507,-0.8920203 0.1697,-1.6782801 -0.16609,-2.3587821 -0.30983,-0.696002 -0.84852,-1.140841 -1.61606,-1.334517 -0.51863,-0.130851 -0.78831,-0.198897 -0.80905,-0.204138 -0.3009,-0.03179 -0.48014,0.06642 -0.53771,0.294601 -0.0838,0.331922 0.0714,0.547606 0.4656,0.647052 0.22819,0.05758 0.30564,0.231586 0.23237,0.522006 -0.0471,0.186708 -0.1488,0.414804 -0.30505,0.684288 -0.13029,0.253983 -0.2216,0.4846958 -0.27394,0.6921392 -0.0523,0.2074511 -0.31708,0.2509801 -0.79421,0.130587 -0.18671,-0.047105 -0.39386,-0.2317681 -0.62147,-0.5539892 -0.20688,-0.316979 -0.42441,-0.504259 -0.65259,-0.561841 -0.91278,-0.230305 -1.80819,-0.09216 -2.68624,0.414449 -0.85208,0.491103 -1.3671,1.0893127 -1.54506,1.7946306 -0.24078,0.95426 0.38564,1.6198241 1.87926,1.9966943 1.32766,0.334997 2.73122,0.3691948 4.21069,0.1025935 1.848,-0.3280642 2.92119,-1.0833212 3.21955,-2.2657733 m 11.21787,0.6346927 c -0.0578,0.315676 -0.21511,0.5805045 -0.4718,0.7944863 -0.25672,0.2139906 -0.55343,0.2901433 -0.89014,0.2284584 -0.52613,-0.096372 -0.72365,-0.5023204 -0.59257,-1.2178463 0.054,-0.2946207 0.17508,-0.7183274 0.36335,-1.2711213 0.2093,-0.5489256 0.33131,-0.9180929 0.36601,-1.1075029 0.054,-0.294618 -0.003,-0.457352 -0.17158,-0.4882 -1.05224,-0.192744 -2.56133,0.683613 -4.52727,2.6290741 -1.90844,1.8690039 -2.97831,3.4348446 -3.20961,4.697527 -0.0964,0.5261189 -0.2212,0.8512693 -0.37445,0.9754521 -0.13221,0.1280378 -0.34563,0.1650714 -0.64025,0.1111009 -0.1894,-0.034696 -0.36813,-0.1870645 -0.53617,-0.4571072 -0.16804,-0.2700421 -0.227,-0.541854 -0.17689,-0.8154364 -0.008,0.04209 0.46915,-0.9581024 1.43057,-3.0005818 0.96142,-2.0424712 1.5096,-3.4319917 1.64453,-4.1685647 0.16191,-0.88387 0.69532,-1.242926 1.60025,-1.077168 0.52611,0.09639 0.72942,0.470767 0.60992,1.123145 -0.004,0.02105 -0.0682,0.19415 -0.19301,0.519293 -0.0845,0.22379 -0.0847,0.343391 -4.7e-4,0.358803 0.0421,0.0077 0.36297,-0.259765 0.96266,-0.802449 0.72802,-0.64966 1.3726,-1.140609 1.93374,-1.472847 0.85221,-0.496405 1.61503,-0.682932 2.28848,-0.55958 0.71551,0.131081 1.06966,0.750605 1.06247,1.858573 -0.014,0.432468 -0.17324,1.479964 -0.47777,3.1424918 m 16.69735,3.2856462 c -0.0991,0.9146374 -0.43269,2.0083076 -1.0009,3.2810139 -0.54466,1.25374023 -0.82734,1.97632752 -0.84806,2.16776405 -0.0207,0.19143335 -0.13604,0.36186785 -0.34589,0.51130415 -0.20987,0.1494321 -0.4637,0.2080257 -0.76147,0.1757809 -0.14891,-0.016126 -0.30065,-0.204717 -0.45522,-0.56577425 -0.13332,-0.35875735 -0.18961,-0.63385263 -0.16887,-0.82528667 0.0345,-0.31905911 0.32928,-0.95426085 0.88424,-1.90560708 0.5785,-0.9703115 0.90115,-1.7638907 0.96797,-2.3807399 0.002,-0.021267 0.05,-0.2635751 0.14327,-0.7269246 0.11447,-0.4610379 0.19014,-0.8617233 0.22701,-1.2020573 0.11976,-1.1060632 -0.1075,-1.6901928 -0.68179,-1.7523905 -0.8083,-0.087521 -2.17897,0.6463705 -4.11202,2.2016753 -1.93077,1.534044 -2.92609,2.5775806 -2.98597,3.1306131 -0.0323,0.2977895 -0.18521,0.5179453 -0.45888,0.6604684 -0.25011,0.1235579 -0.50278,0.1715163 -0.75802,0.143875 -0.48923,-0.052976 -0.69584,-0.4304289 -0.61982,-1.1323591 0.0599,-0.5530321 0.35612,-1.5001119 0.88872,-2.841242 0.55615,-1.3600874 0.85035,-2.1890275 0.88261,-2.4868226 0.0276,-0.2552391 -0.033,-0.3909242 -0.18188,-0.4070555 -0.5105,-0.055273 -1.57363,0.8195214 -3.18939,2.6243851 -1.64395,1.8663823 -2.51775,3.2781582 -2.6214,4.2353319 -0.0737,0.6806585 -0.49343,0.97952682 -1.25917,0.8966059 -0.27652,-0.0299436 -0.5237,-0.1320308 -0.74156,-0.3062619 -0.19427,-0.1931976 -0.2799,-0.3961493 -0.25686,-0.6088558 0.0138,-0.1276223 0.30395,-0.720283 0.87041,-1.7779837 0.59003,-1.0766624 0.89196,-1.6788067 0.90578,-1.8064345 0.0138,-0.1276188 0.147,-0.661956 0.39955,-1.6030133 0.27381,-0.9387417 0.41993,-1.4931978 0.43836,-1.66337 0.13129,-1.2124134 0.49472,-1.786377 1.0903,-1.721892 0.17016,0.01844 0.36674,0.190364 0.58975,0.5157822 0.24426,0.3277403 0.35718,0.5766882 0.33876,0.7468443 -0.0161,0.1489021 -0.0817,0.3570009 -0.19672,0.6242969 -0.11273,0.2460408 -0.17254,0.4009632 -0.17945,0.4647677 -0.009,0.085089 0.0287,0.1322372 0.1138,0.1414436 -0.0213,-0.0023 0.57986,-0.4859597 1.80341,-1.4509916 1.2448,-0.9627111 2.13309,-1.4152791 2.66486,-1.3577051 0.38286,0.04147 0.66825,0.287574 0.85617,0.7383128 0.1333,0.3587648 0.17462,0.7721186 0.12396,1.2400628 -0.0231,0.2127134 -0.0918,0.5495871 -0.20628,1.0106222 -0.1145,0.4610489 -0.17865,0.7553815 -0.19246,0.8829988 -0.023,0.2127115 0.008,0.3236709 0.0931,0.3328787 0.10634,0.011523 0.5344,-0.2649237 1.28417,-0.8293391 0.93603,-0.6948696 1.70015,-1.1931636 2.29236,-1.4948836 1.00499,-0.5367607 1.87973,-0.7648363 2.62421,-0.6842275 1.48892,0.1612437 2.0687,1.7627054 1.73934,4.8043899 m 12.64124,4.35202489 c -0.0259,0.76978156 -0.95835,1.12371825 -2.79725,1.06181114 -0.32076,-0.0107975 -0.75226,-0.2286908 -1.29453,-0.65368064 -0.5209,-0.42426821 -0.94172,-0.64180161 -1.26245,-0.65260087 0.0855,0.002881 -0.37288,0.26574035 -1.37519,0.78857902 -1.00162,0.5014574 -2.0263,0.73454946 -3.07405,0.69927688 -0.94084,-0.0316732 -1.55915,-0.10600576 -1.8549,-0.22299783 -0.75971,-0.32527322 -1.12156,-1.02247959 -1.08557,-2.09162119 0.0504,-1.4967926 1.10192,-3.1632511 3.15458,-4.9993805 1.94287,-1.7541828 3.49164,-2.611842 4.64632,-2.5729802 0.81254,0.027364 1.52876,0.3725808 2.14866,1.0356508 0.62059,0.6417051 0.91686,1.3795175 0.8888,2.2134394 -0.0339,1.0049976 -0.3292,1.8299281 -0.88608,2.4747941 -0.55617,0.6234915 -0.84541,1.2666684 -0.86772,1.9295324 -0.0122,0.36350967 0.33445,0.55714083 1.04009,0.58089408 0.2352,0.00792 0.58874,-0.001585 1.06061,-0.0285159 0.49395,-0.0475901 0.80508,-0.0692265 0.93339,-0.0649092 0.42765,0.0143988 0.63607,0.18196811 0.62529,0.50270858 m -3.40011,-5.83014376 c 0.0108,-0.3207346 -0.16233,-0.5834467 -0.51935,-0.7881371 -0.33565,-0.2039547 -0.66385,-0.3113349 -0.98458,-0.3221409 -0.79117,-0.026626 -1.76636,0.3258709 -2.92555,1.0574921 -1.15921,0.7316355 -1.74601,1.3112775 -1.7604,1.7389278 -0.003,0.085537 -0.28097,0.3972803 -0.83425,0.935232 -0.53191,0.5386806 -0.81046,1.1822173 -0.83565,1.9306122 -0.0173,0.5131894 0.21819,0.83151804 0.70639,0.95498683 0.12686,0.0470863 0.46826,0.0799866 1.02422,0.0987011 0.55595,0.0187176 1.4713,-0.46423569 2.74606,-1.44886123 1.27475,-0.9846196 1.91933,-1.6907587 1.93373,-2.1184195 0.005,-0.1496744 0.0881,-0.3930569 0.24936,-0.7301484 0.18257,-0.3363599 0.30593,-0.5034631 0.37009,-0.5013098 0.53456,0.018002 0.8112,-0.2509756 0.82993,-0.8069352 m 13.24251,5.57842496 c 0.0111,0.59895544 -0.56877,1.05911565 -1.7397,1.380482 -0.76651,0.20684944 -1.62037,0.31902994 -2.56157,0.33654184 -1.0054,0.018706 -1.83294,-0.17988241 -2.48263,-0.59576705 -0.73646,-0.47846458 -1.11404,-1.22039038 -1.13274,-2.22577965 -0.0112,-0.5989505 0.16446,-1.5116583 0.52682,-2.7381263 0.38374,-1.2268545 0.57362,-1.9472406 0.56965,-2.1611605 -0.003,-0.1711216 -0.069,-0.2554924 -0.1973,-0.2531126 -0.17113,0.00319 -0.42763,0.018664 -0.76949,0.046415 -0.32047,0.027369 -0.55557,0.042443 -0.70531,0.045221 -0.77009,0.014336 -1.1615,-0.3207588 -1.17423,-1.0052862 -0.004,-0.1925117 0.10039,-0.3549356 0.31191,-0.4872725 0.23252,-0.1541068 0.44504,-0.232956 0.63756,-0.2365478 0.32087,-0.00596 0.72809,0.02926 1.22169,0.1056611 0.51498,0.076022 0.91151,0.1114417 1.1896,0.106258 0.14973,-0.00278 0.54204,-0.7697259 1.17691,-2.3008504 0.69625,-1.682034 1.03642,-2.95088 1.0205,-3.806544 -0.004,-0.192505 0.11088,-0.365823 0.34341,-0.519956 0.23251,-0.1541 0.45572,-0.233149 0.66964,-0.237145 0.17112,-0.0032 0.37653,0.110703 0.61622,0.341612 0.23967,0.230941 0.3617,0.464055 0.36609,0.699343 0.006,0.320883 -0.36097,1.301347 -1.1008,2.941393 -0.71845,1.6396737 -1.07568,2.5664602 -1.0717,2.7803624 0.002,0.1069658 0.38783,0.1425841 1.15752,0.1068552 1.77466,-0.075807 2.53365,-0.1113274 2.27697,-0.1065611 0.36364,-0.00676 0.54845,0.1502946 0.55443,0.4711533 0.01,0.513398 -0.49847,0.8117312 -1.52405,0.8950006 0.10695,-0.00198 -0.82357,0.015332 -2.79155,0.05194 -0.2567,0.00478 -0.59871,0.5996093 -1.02603,1.7844766 -0.44713,1.2708431 -0.66253,2.344781 -0.64621,3.2218167 0.0191,1.02678076 0.83082,1.52524434 2.43516,1.49539228 1.06956,-0.0198984 1.93431,-0.12158227 2.59426,-0.30505206 0.68093,-0.20525475 0.97862,-0.30708722 0.89306,-0.30549762 0.23529,-0.00438 0.35593,0.15386937 0.36191,0.47473536 m 5.32293,-14.10955366 c 0.0121,0.213621 -0.15549,0.469577 -0.50285,0.767869 -0.32722,0.275749 -0.64034,0.422107 -0.93939,0.439074 -0.36313,0.02064 -0.72771,-0.172955 -1.09373,-0.580772 -0.34467,-0.408999 -0.53338,-0.901873 -0.56613,-1.478623 -0.008,-0.149507 0.0856,-0.379857 0.2822,-0.691051 0.23449,-0.399027 0.49058,-0.606434 0.76827,-0.622221 0.64081,-0.03637 1.15855,0.212809 1.55322,0.747544 0.30315,0.432818 0.46929,0.905545 0.49841,1.41818 m 2.02034,12.9357694 c 0.0837,1.47387641 -0.97453,2.2732823 -3.17465,2.39822011 -1.23892,0.0703541 -2.20425,-0.32484435 -2.89601,-1.18559662 -0.59904,-0.73743799 -0.93131,-1.68289089 -0.99681,-2.83636159 -0.0461,-0.8116939 0.27009,-1.8475443 0.94857,-3.1075544 0.67726,-1.2813553 1.00862,-2.0501996 0.99406,-2.3065354 -0.0158,-0.2776763 0.41424,-0.4413859 1.29002,-0.491129 0.25632,-0.014545 0.4766,0.090807 0.66083,0.3160585 0.18301,0.203911 0.2818,0.4340244 0.29636,0.6903408 0.0206,0.3631376 -0.37361,1.1569815 -1.18267,2.3815338 -0.80907,1.2245665 -1.18631,2.3174571 -1.13172,3.2786752 0.0643,1.1321094 0.72656,1.66237901 1.98683,1.59081023 0.55537,-0.0315357 1.09279,-0.19062993 1.61225,-0.47728323 0.51945,-0.286648 0.88598,-0.4360383 1.09959,-0.4481713 0.3204,-0.018192 0.48485,0.047472 0.49335,0.1969929 m 8.38233,-5.7449595 c 0.0701,0.7670254 -0.19066,2.1443691 -0.78235,4.1320353 -0.57235,1.9644203 -0.85463,2.98924051 -0.84683,3.07446361 0.0234,0.25567343 0.21713,0.37760483 0.58129,0.36579454 0.49198,-0.02349683 0.82904,0.0208806 1.01119,0.13313244 0.38557,0.22255728 0.61537,0.73865029 0.6894,1.54828051 0.10129,1.1079127 -0.1374,2.13949 -0.71607,3.0947348 -0.6348,1.0463047 -1.46355,1.6162107 -2.48623,1.7097195 -0.57527,0.05259 -1.10128,-0.1786113 -1.57805,-0.6936035 -0.47677,-0.5150024 -0.7434,-1.0814385 -0.79989,-1.69931 -0.074,-0.8096327 0.18408,-1.7463068 0.77433,-2.8100251 0.59023,-1.06371943 0.88632,-1.58492586 0.88827,-1.56362078 -0.004,-0.0426111 -0.0378,-0.0609952 -0.10172,-0.0551523 -0.19176,0.0175328 -0.52291,0.15523066 -0.99347,0.41309392 -0.47251,0.23655842 -0.93247,0.37529112 -1.3799,0.41619851 -1.47012,0.13441075 -2.26849,-0.49083003 -2.3951,-1.87572425 -0.13052,-1.4275022 0.39738,-3.1730141 1.58371,-5.2365411 1.29662,-2.2669546 2.71195,-3.4705628 4.24599,-3.610828 0.68179,-0.06232 1.24366,0.2085664 1.68561,0.8126737 0.34698,0.5053892 0.55359,1.1202813 0.61982,1.8446782 m -1.41204,0.064649 c -0.0292,-0.3195823 -0.24435,-0.5577229 -0.64539,-0.7144225 -0.29062,-0.1238096 -0.56376,-0.174031 -0.81943,-0.1506643 -0.72441,0.06624 -1.53075,0.8811657 -2.41903,2.4447784 -0.89023,1.5423198 -1.30125,2.6863321 -1.23307,3.43204 0.0117,0.1278394 0.0156,0.2886087 0.0119,0.4823082 0.0175,0.191757 0.0302,0.3302462 0.038,0.4154681 0.0487,0.5326531 0.48852,0.76099291 1.31946,0.68502013 0.95877,-0.0876575 1.86963,-1.05178583 2.73259,-2.89238813 0.75265,-1.637151 1.09099,-2.8711965 1.01502,-3.7021399 m 0.56577,9.7128214 c -0.0565,-0.6178765 -0.12352,-0.9984631 -0.20107,-1.141761 -0.15706,-0.307903 -0.49126,-0.43847856 -1.0026,-0.39172706 -0.10654,0.00974 -0.34364,0.35368016 -0.71132,1.03182176 -0.36769,0.6781396 -0.54276,1.113087 -0.52522,1.3048436 0.12856,1.4061959 0.38459,2.0917632 0.76811,2.0567039 0.31958,-0.029224 0.6855,-0.3741992 1.09775,-1.0349263 0.43354,-0.6626819 0.62499,-1.2709995 0.57435,-1.8249549 m 12.19051,-6.0657187 c 0.0739,0.5513431 -0.695,0.9349909 -2.30659,1.1509445 -0.40291,0.053992 -0.83642,-0.2009178 -1.30051,-0.7647291 -0.4429,-0.5666462 -0.67495,-0.8485502 -0.69615,-0.8457128 -0.0636,0.00853 -0.26136,0.3048526 -0.59322,0.8889724 -0.39964,0.7227247 -0.82977,1.2984293 -1.29039,1.7271156 -0.69236,0.63243066 -1.52626,1.01400038 -2.50171,1.14471025 -0.82701,0.11082009 -1.43102,-0.36948111 -1.81204,-1.44090505 -0.16854,-0.4523084 -0.33806,-1.3146244 -0.50855,-2.5869506 -0.0398,-0.2968706 0.0566,-0.9465818 0.28926,-1.9491355 0.22978,-1.0237462 0.31058,-1.7900869 0.24238,-2.2990243 -0.0369,-0.275661 0.0336,-0.5549357 0.21152,-0.8378249 0.19632,-0.3069169 0.43232,-0.4788501 0.70799,-0.5158001 0.50893,-0.06819 0.83443,0.4278491 0.97651,1.4881086 0.009,0.063625 -0.18682,0.7805569 -0.58603,2.1507988 -0.37801,1.3674133 -0.51587,2.4328133 -0.41357,3.1962031 0.0398,0.2968783 0.15236,0.5732053 0.33774,0.8289819 0.20658,0.2529399 0.4265,0.3637802 0.65976,0.3325213 0.72098,-0.09661 1.55193,-0.6612667 2.49286,-1.6939721 0.82506,-0.9308273 1.22196,-1.5128723 1.1907,-1.7461368 -0.017,-0.1272266 0.14014,-0.8066678 0.47159,-2.0383254 0.3498,-1.2556894 0.49344,-2.1167969 0.43093,-2.5833244 -0.017,-0.127222 0.0521,-0.255218 0.20758,-0.383988 0.17664,-0.13159 0.33918,-0.207335 0.48762,-0.227237 0.16964,-0.02272 0.33797,0.105826 0.50499,0.385641 0.18821,0.276995 0.29653,0.5215136 0.32495,0.7335576 0.0114,0.084831 -0.0816,0.6801081 -0.27877,1.7858328 -0.19721,1.1057405 -0.26598,1.8812631 -0.2063,2.3265701 0.14491,1.081479 0.94895,1.524183 2.41213,1.3281133 0.31807,-0.042619 0.49984,0.1057127 0.54532,0.4449948 m 12.83547,-3.4732293 c 0.16508,0.8832954 -0.43145,1.7674629 -1.78959,2.6525049 -1.25695,0.8443637 -2.77922,1.4336022 -4.56682,1.7677173 -2.41854,0.4520412 -4.10542,0.4517315 -5.06064,-9.291e-4 -0.86324,-0.4263196 -1.44619,-1.4491623 -1.74886,-3.0685311 -0.29088,-1.5562679 0.38359,-3.1297297 2.02341,-4.7203893 1.52542,-1.503966 3.20297,-2.426942 5.03265,-2.768932 0.44164,-0.08253 0.97379,0.144484 1.59646,0.681055 0.64368,0.532663 1.02842,1.13548 1.15422,1.808453 0.16508,0.8832989 -0.45258,1.945539 -1.85299,3.1867232 -1.3794,1.2372658 -2.6895,1.9718537 -3.93031,2.2037658 -0.18928,0.035381 -0.4896,0.058866 -0.90098,0.070455 -0.4153,-0.00943 -0.67553,-0.00433 -0.78069,0.015324 -0.18927,0.035381 -0.27409,0.1056462 -0.25443,0.210796 0.14937,0.7991706 0.68339,1.2108458 1.60206,1.2350269 0.30622,0.00806 1.20592,-0.1274485 2.6991,-0.4065369 1.07256,-0.2004669 2.07162,-0.5613209 2.99718,-1.0825629 0.49431,-0.2665112 1.12278,-0.6886915 1.8854,-1.2665421 0.56802,-0.4544095 0.97822,-0.7052016 1.2306,-0.752377 0.39957,-0.074679 0.62098,0.00365 0.66423,0.2349797 m -4.83388,-3.5040117 c -0.0354,-0.189267 -0.27576,-0.427289 -0.72113,-0.714067 -0.44538,-0.286758 -0.88889,-0.388869 -1.33053,-0.306333 -0.92536,0.172965 -1.91803,0.859106 -2.97803,2.0584268 -0.91926,1.0206757 -1.35531,1.6571936 -1.30814,1.9095558 0.16509,0.883296 0.61567,1.2561521 1.35175,1.1185696 0.7571,-0.1415029 1.79705,-0.7494178 3.11983,-1.8237464 1.32278,-1.0743145 1.94486,-1.8217828 1.86625,-2.2424058 m 18.48989,-16.664156 c -0.0165,-0.06202 -0.14135,1.553708 -0.37469,4.847191 -0.21266,3.288029 -0.1435,5.5938 0.20748,6.917319 0.0329,0.124089 0.0976,0.660286 0.19416,1.608592 0.11721,0.942837 0.23888,1.652073 0.36502,2.12771 0.23581,0.88925 0.55018,1.281775 0.9431,1.177575 0.18612,-0.04935 0.42371,0.05365 0.71277,0.309009 0.30426,0.229201 0.49203,0.4782204 0.56333,0.7470593 0.25774,0.9719683 -0.0477,1.5731152 -0.91623,1.8034427 -0.57904,0.1535532 -1.22069,-0.2628538 -1.92495,-1.249222 -0.64644,-0.935292 -1.13144,-2.013002 -1.455,-3.233135 -0.39484,-1.488963 -0.61196,-3.434548 -0.65136,-5.83676 -0.0226,-1.58767 0.0337,-3.4619 0.16904,-5.622696 0.11416,-1.823141 0.16301,-2.76574 0.14656,-2.8278 -0.10968,-0.413583 0.18813,-1.001648 0.89343,-1.764197 0.53768,-0.142563 0.91346,0.189407 1.12734,0.995912 m 7.05719,2.298777 c 0.0553,0.206697 -0.0568,0.491378 -0.33628,0.854043 -0.26434,0.336499 -0.54119,0.543445 -0.83054,0.620838 -0.35136,0.09401 -0.74768,-0.02144 -1.18895,-0.346351 -0.4206,-0.330409 -0.70555,-0.774641 -0.85484,-1.332697 -0.0387,-0.14466 0.007,-0.38932 0.13586,-0.733983 0.14849,-0.438358 0.35708,-0.693485 0.62576,-0.765382 0.62005,-0.165856 1.17763,-0.02711 1.67274,0.416252 0.3848,0.362169 0.64355,0.791262 0.77625,1.28728 m 4.60734,12.255135 c 0.3815,1.426103 -0.49215,2.423904 -2.62096,2.9934038 -1.19875,0.3206914 -2.22426,0.1299436 -3.07653,-0.5722448 -0.73642,-0.600292 -1.25392,-1.458477 -1.55249,-2.574559 -0.21011,-0.785383 -0.11105,-1.863878 0.29717,-3.235487 0.4027,-1.392262 0.57087,-2.212405 0.50452,-2.460433 -0.0719,-0.268675 0.31588,-0.516365 1.16327,-0.74307 0.24802,-0.06634 0.48511,-0.008 0.71127,0.175149 0.22064,0.162459 0.36413,0.367691 0.43048,0.615698 0.094,0.351368 -0.13065,1.208767 -0.67394,2.5722 -0.54329,1.363447 -0.69053,2.5102 -0.44172,3.44026 0.29305,1.095413 1.04928,1.480008 2.2687,1.153786 0.53737,-0.143755 1.03123,-0.408756 1.48159,-0.795006 0.45034,-0.386242 0.77886,-0.60701 0.98555,-0.662306 0.31001,-0.08293 0.48438,-0.05206 0.52309,0.09261 m 10.75361,-7.785594 c 0.4569,1.693849 0.009,3.443347 -1.3431,5.248501 -1.55005,2.057938 -3.86399,3.502023 -6.94181,4.332261 -0.39248,0.10587 -0.81085,0.07469 -1.2551,-0.09355 -0.44426,-0.168238 -0.72768,-0.479579 -0.85026,-0.934025 -0.14488,-0.537069 -0.1805,-1.901357 -0.10686,-4.092868 0.0681,-2.212157 0.0687,-3.442177 0.002,-3.690065 -0.15601,-0.578375 -0.16479,-1.473472 -0.0263,-2.685296 0.15912,-1.217371 0.22197,-1.888033 0.18854,-2.011986 -0.22288,-0.826249 -0.39114,-2.06612 -0.50477,-3.719618 -0.15522,-2.218393 0.046,-3.402822 0.60376,-3.553289 0.26854,-0.07242 0.53476,0.01089 0.79868,0.24991 0.26392,0.239064 0.43767,0.51351 0.52125,0.823338 0.1003,0.371839 0.16085,1.541044 0.18167,3.507619 0.0152,1.945952 0.0619,3.063516 0.13987,3.352694 0.0334,0.123953 0.0708,0.180351 0.11212,0.169193 1.59056,-0.429036 3.20993,-0.422666 4.85812,0.01911 1.99703,0.502818 3.2045,1.528841 3.62242,3.078073 m -1.4991,0.603815 c -0.55721,-2.065647 -2.80852,-2.566342 -6.75392,-1.502088 -0.22722,0.0613 -0.38832,1.312458 -0.48329,3.753467 -0.10054,2.420367 -0.0589,3.97138 0.12501,4.653044 0.0446,0.165255 0.0979,0.239523 0.15982,0.222805 2.12763,-0.573921 3.89906,-1.605752 5.3143,-3.095495 1.40965,-1.510389 1.95568,-2.854299 1.63808,-4.031733 m 11.42826,-3.159785 c 0.0838,0.3098 0.0559,0.616543 -0.0835,0.920231 -0.1395,0.303706 -0.37447,0.500246 -0.7049,0.589621 -0.51633,0.13967 -0.86945,-0.141595 -1.05939,-0.843795 -0.0782,-0.289128 -0.15143,-0.723681 -0.21965,-1.303659 -0.0476,-0.585545 -0.0965,-0.971259 -0.14677,-1.157145 -0.0782,-0.289126 -0.19994,-0.411349 -0.36515,-0.366669 -1.03264,0.279335 -2.01702,1.720288 -2.95316,4.322862 -0.91717,2.508806 -1.20816,4.382786 -0.87298,5.621945 0.13967,0.516318 0.16709,0.863521 0.0823,1.041607 -0.0642,0.172502 -0.24081,0.297858 -0.52994,0.376068 -0.18588,0.05028 -0.4128,-0.01024 -0.68078,-0.181555 -0.26798,-0.171314 -0.43828,-0.391214 -0.5109,-0.6597 0.0112,0.04131 0.0107,-1.066745 -0.002,-3.324157 -0.0122,-2.257403 -0.11606,-3.747529 -0.31159,-4.470381 -0.23463,-0.867404 0.0921,-1.421219 0.98016,-1.661448 0.51631,-0.139651 0.86106,0.110635 1.03424,0.750858 0.006,0.02066 0.0221,0.20459 0.0495,0.551783 0.0201,0.238362 0.0715,0.346365 0.15414,0.32401 0.0413,-0.01116 0.21566,-0.390785 0.52308,-1.138864 0.37716,-0.899907 0.74738,-1.620637 1.11067,-2.162191 0.55525,-0.815095 1.16331,-1.312031 1.8242,-1.490812 0.70219,-0.189926 1.28868,0.216609 1.75947,1.219605 0.17368,0.396306 0.48119,1.410234 0.92253,3.041786 m 13.89436,0.08269 c 0.23315,0.867818 -0.29296,1.79562 -1.57831,2.783408 -1.18762,0.939378 -2.65956,1.644995 -4.41584,2.116852 -2.37615,0.6384 -4.05797,0.769023 -5.04544,0.39187 -0.89372,-0.358031 -1.55431,-1.33254 -1.98176,-2.923531 -0.41079,-1.528995 0.13951,-3.150061 1.65092,-4.863202 1.40409,-1.617829 3.00494,-2.668228 4.80255,-3.151202 0.4339,-0.116565 0.98207,0.06846 1.64451,0.555086 0.68308,0.481094 1.11345,1.05223 1.2911,1.713409 0.23314,0.867821 -0.30021,1.974798 -1.60006,3.320935 -1.27919,1.340599 -2.52832,2.174658 -3.74739,2.50218 -0.18596,0.04997 -0.48356,0.09669 -0.89279,0.140174 -0.41479,0.02283 -0.67384,0.04812 -0.77715,0.07587 -0.18596,0.04997 -0.26506,0.126602 -0.2373,0.229909 0.21095,0.785166 0.77531,1.15415 1.69308,1.106953 0.30592,-0.01573 1.19239,-0.220665 2.65941,-0.61481 1.05377,-0.283112 2.0218,-0.720422 2.90411,-1.311932 0.47214,-0.304075 1.06594,-0.773762 1.78141,-1.409062 0.53103,-0.497127 0.92053,-0.779001 1.16849,-0.845624 0.39256,-0.105467 0.61939,-0.04456 0.68046,0.182714 M 476.71615,-26.209 c -0.05,-0.185949 -0.3081,-0.404596 -0.77438,-0.65594 -0.4663,-0.251323 -0.9164,-0.318702 -1.3503,-0.202135 -0.90914,0.244267 -1.84556,1.005388 -2.80926,2.283364 -0.83728,1.088949 -1.2226,1.757391 -1.15599,2.005331 0.23316,0.867817 0.71132,1.204575 1.4345,1.010275 0.74383,-0.199841 1.73345,-0.88664 2.96886,-2.0604 1.2354,-1.173744 1.79759,-1.967242 1.68657,-2.380495 m 30.21192,-3.391347 c 0.22106,0.870972 -0.31788,1.791377 -1.61683,2.761218 -1.20054,0.922792 -2.68215,1.607897 -4.44481,2.055316 -2.38479,0.605336 -4.06825,0.712588 -5.05039,0.321757 -0.88867,-0.370409 -1.53565,-1.354 -1.94096,-2.950774 -0.38952,-1.534553 0.18324,-3.14782 1.7183,-4.839804 1.42642,-1.598171 3.0417,-2.626235 4.84585,-3.084196 0.43548,-0.110527 0.98102,0.0821 1.63664,0.577873 0.67634,0.490536 1.09873,1.067594 1.26718,1.731177 0.22107,0.870975 -0.3276,1.970438 -1.64602,3.298391 -1.2977,1.322703 -2.55829,2.139333 -3.78179,2.449891 -0.18664,0.04738 -0.48485,0.08996 -0.89465,0.127761 -0.41507,0.01707 -0.67444,0.03876 -0.77813,0.06507 -0.18663,0.04738 -0.26679,0.122909 -0.24047,0.226591 0.20002,0.78802 0.7592,1.164807 1.67754,1.130361 0.30611,-0.01148 1.19534,-0.204083 2.6677,-0.577814 1.05759,-0.268449 2.03161,-0.692272 2.92205,-1.27147 0.47631,-0.297488 1.07658,-0.758883 1.8008,-1.384185 0.53789,-0.489704 0.93126,-0.766141 1.18012,-0.829313 0.394,-0.100005 0.61995,-0.03596 0.67787,0.192148 m -5.04748,-3.188656 c -0.0474,-0.186626 -0.30244,-0.408836 -0.76519,-0.666633 -0.46276,-0.257775 -0.91188,-0.331398 -1.34736,-0.220869 -0.91244,0.231616 -1.85935,0.979658 -2.84071,2.244126 -0.85232,1.077215 -1.24689,1.740241 -1.18372,1.989082 0.22107,0.870972 0.69452,1.214339 1.42032,1.030101 0.74654,-0.18949 1.74561,-0.862478 2.9972,-2.018966 1.25158,-1.156473 1.82473,-1.942086 1.71946,-2.356841 m 14.569,-2.83658 c 0.16031,0.665609 0.16607,2.105666 0.0173,4.320176 -0.16263,2.61397 -0.58714,4.00362 -1.27353,4.168954 -0.20801,0.0501 -0.43476,-0.434448 -0.68024,-1.45365 0.01,0.0416 0.10156,-0.94875 0.27466,-2.97106 0.18887,-2.048109 0.19563,-3.436167 0.0203,-4.164176 -0.11524,-0.478391 -0.30806,-0.685026 -0.57845,-0.619904 -1.06081,0.255527 -2.16003,1.356555 -3.29765,3.303088 -1.13764,1.946546 -1.5787,3.450216 -1.32318,4.511015 0.0601,0.249602 0.0259,0.609958 -0.10271,1.081068 -0.1286,0.471113 -0.2969,0.731719 -0.5049,0.78182 -0.52,0.125254 -0.86517,-0.16572 -1.03552,-0.872921 -0.0601,-0.249599 0.0362,-1.494182 0.28902,-3.733752 0.26859,-2.265371 0.3127,-3.772459 0.13233,-4.521268 -0.0902,-0.374391 0.13513,-0.626723 0.67593,-0.756996 0.624,-0.150294 1.04622,0.232155 1.26667,1.147346 0.015,0.06241 -0.0173,0.202239 -0.097,0.419492 -0.0847,0.196469 -0.12457,0.305099 -0.11956,0.325891 0.0308,0.0366 0.067,0.04988 0.10863,0.03986 0.1872,-0.04508 0.69019,-0.606377 1.50899,-1.683884 0.81379,-1.098286 1.67828,-1.757657 2.59348,-1.978115 0.7072,-0.170332 1.23418,0.09886 1.58095,0.807564 0.11751,0.21378 0.29901,0.830265 0.54452,1.849457 m 26.4939,-7.459643 c 0.0166,0.08395 -0.18507,0.27665 -0.60512,0.578084 -0.40325,0.276307 -0.69931,0.433189 -0.88817,0.470645 -0.3148,0.06245 -0.49731,1.396462 -0.54755,4.002024 -0.0541,2.366404 -0.0332,3.790941 0.0625,4.273616 -1.17522,0.233129 -1.81695,0.07687 -1.92518,-0.468764 -0.0874,-0.440703 0.0151,-1.627979 0.30769,-3.561831 0.30937,-1.95899 0.42867,-3.116868 0.35791,-3.473639 -0.0333,-0.167879 -0.10243,-0.241415 -0.20735,-0.22061 -2.87127,0.809508 -4.64268,1.280865 -5.31422,1.414071 0.025,0.125925 -0.61356,3.284428 -1.91561,9.47552 -0.48268,0.09575 -0.72402,0.143622 -0.72401,0.143623 -0.37342,-0.01317 -0.608,-0.2611 -0.70375,-0.743777 -0.0708,-0.356763 0.21762,-2.311595 0.86516,-5.864503 0.66853,-3.557061 0.98407,-5.430031 0.9466,-5.618915 -0.0416,-0.209849 6.6e-4,-1.755968 0.12686,-4.638362 0.14302,-2.907512 0.18748,-4.497685 0.13336,-4.770523 0.31479,-0.06242 0.75966,-0.12886 1.33461,-0.199309 0.16235,0.818474 0.20652,2.085702 0.1325,3.801688 -0.0782,1.695034 -0.10063,2.626486 -0.0673,2.79436 0.0251,0.01684 0.0503,0.03366 0.0754,0.05047 0.0168,-0.02513 0.0357,-0.03979 0.0567,-0.04397 0.0378,-0.0293 0.31381,-0.782027 0.82803,-2.25819 0.62798,-1.782252 1.19241,-3.170206 1.69328,-4.163867 0.76604,-1.526081 1.48484,-2.35574 2.1564,-2.488978 0.83943,-0.166496 1.45689,0.747079 1.85239,2.740727 0.0999,0.503684 0.18914,1.118521 0.26774,1.844515 0.0954,0.700882 0.15142,1.093286 0.16808,1.177212 0.0583,0.293821 0.0592,1.067964 0.003,2.322432 -0.0565,1.254497 -0.01,2.259486 0.14002,3.014969 0.004,0.021 0.22859,0.05282 0.6733,0.09546 0.44052,0.02168 0.67952,0.126955 0.717,0.315817 m -3.92521,-9.396569 c -0.33578,0.06663 -1.09992,1.712317 -2.29241,4.93707 -1.17567,3.199635 -1.7198,5.019798 -1.63237,5.460493 0.96535,-0.191486 2.52681,-0.566667 4.68438,-1.125543 0.008,0.04198 0.0206,-1.105573 0.0369,-3.442673 0.0121,-2.358056 -0.0735,-3.998783 -0.25662,-4.922187 -0.12906,-0.650545 -0.30901,-0.952931 -0.53985,-0.90716 m 14.82233,9.316805 c 0.0535,0.316439 -0.004,0.619064 -0.17194,0.907876 -0.16815,0.288827 -0.42099,0.461778 -0.7585,0.518851 -0.5274,0.0892 -0.85174,-0.224831 -0.97303,-0.942082 -0.0499,-0.295327 -0.0809,-0.734917 -0.0928,-1.318771 0.009,-0.587403 -0.002,-0.976038 -0.0344,-1.165907 -0.0499,-0.295325 -0.15931,-0.428722 -0.32806,-0.400193 -1.05478,0.178388 -2.17361,1.51763 -3.35651,4.017729 -1.15498,2.408597 -1.62544,4.245753 -1.41138,5.511473 0.0892,0.527386 0.083,0.875614 -0.0186,1.044686 -0.0805,0.165506 -0.26843,0.273231 -0.56376,0.323177 -0.18986,0.03211 -0.40989,-0.05002 -0.66008,-0.246399 -0.2502,-0.196373 -0.39849,-0.43168 -0.44486,-0.705921 0.007,0.04219 0.11354,-1.060738 0.31923,-3.308793 0.20568,-2.248046 0.24609,-3.74124 0.12123,-4.479587 -0.14984,-0.885996 0.2288,-1.405701 1.1359,-1.559115 0.52738,-0.08918 0.84637,0.193205 0.95696,0.847152 0.004,0.02111 0.002,0.205767 -0.004,0.553986 -0.003,0.239193 0.0378,0.35165 0.12215,0.337372 0.0422,-0.0071 0.25237,-0.368151 0.63054,-1.083076 0.46223,-0.859314 0.90027,-1.540956 1.31412,-2.044929 0.63131,-0.757713 1.28449,-1.193656 1.95955,-1.30783 0.71723,-0.121283 1.26175,0.339946 1.63357,1.38369 0.13462,0.411217 0.34286,1.450086 0.6247,3.116611 m 15.8926,-13.876668 c 0.0198,0.148467 -0.47941,2.470778 -1.49768,6.966939 -1.02112,4.474983 -1.44387,7.369871 -1.26823,8.684671 0.0708,0.530169 -0.2967,0.849072 -1.10254,0.956712 -0.53018,0.07082 -0.8335,-0.180057 -0.90997,-0.752638 -0.0312,-0.233267 -0.0369,-0.599444 -0.0172,-1.098531 0.038,-0.523115 0.0429,-0.890708 0.0146,-1.102781 -0.29462,-2.205473 -1.44923,-3.173658 -3.46384,-2.904559 -1.14516,0.152978 -2.32553,0.850272 -3.54111,2.091886 -1.19721,1.21759 -1.73916,2.250512 -1.62585,3.098769 0.11047,0.82706 0.74966,1.410812 1.91755,1.751257 0.9657,0.28112 2.01053,0.346611 3.13448,0.196474 1.37842,-0.184125 2.22952,-0.276228 2.55329,-0.276309 0.88079,-0.03131 1.34951,0.165095 1.40618,0.589224 0.0368,0.275687 -0.12147,0.545057 -0.47485,0.80811 -0.3534,0.263056 -0.76337,0.425743 -1.2299,0.488062 -5.64095,0.753507 -8.66254,-0.375404 -9.06479,-3.386737 -0.19263,-1.44204 0.4291,-2.928109 1.86516,-4.458211 1.45444,-1.554123 3.06174,-2.448747 4.82189,-2.683876 0.78463,-0.104799 1.53609,-0.05408 2.25436,0.15215 0.47083,0.131383 0.96218,0.335561 1.47405,0.612535 0.44258,0.243081 0.68507,0.361783 0.7275,0.356107 0.0636,-0.0085 0.0869,-0.07636 0.0699,-0.203607 -0.0595,-0.445326 0.2625,-1.912943 0.96599,-4.402855 0.72468,-2.492715 1.01054,-4.311656 0.85758,-5.45683 -0.13598,-1.017893 0.008,-1.555177 0.43224,-1.611854 0.65739,-0.08779 1.11904,0.0556 1.38494,0.430174 0.13718,0.21913 0.2426,0.604369 0.31627,1.155718 m 13.38655,14.247235 c 0.0777,0.895219 -0.60253,1.716694 -2.04085,2.464428 -1.33361,0.717166 -2.90629,1.15444 -4.71802,1.311826 -2.45119,0.212934 -4.12992,0.04737 -5.0362,-0.49669 -0.81732,-0.508836 -1.29727,-1.583868 -1.43984,-3.225098 -0.13702,-1.577278 0.68835,-3.077097 2.47611,-4.499461 1.66542,-1.347293 3.42532,-2.101489 5.2797,-2.262589 0.4476,-0.03887 0.95495,0.239186 1.52206,0.834176 0.5884,0.593159 0.91223,1.230767 0.9715,1.912827 0.0777,0.895223 -0.641,1.891844 -2.15627,2.989867 -1.49397,1.096182 -2.86973,1.698892 -4.12729,1.808133 -0.19183,0.01667 -0.49301,0.01062 -0.90354,-0.01815 -0.41239,-0.05007 -0.67187,-0.07048 -0.77844,-0.06123 -0.19184,0.01667 -0.28312,0.07829 -0.27386,0.184856 0.0704,0.80996 0.56148,1.27197 1.47336,1.386032 0.30395,0.03802 1.2126,-0.0087 2.72595,-0.140163 1.08704,-0.09443 2.11664,-0.355675 3.08881,-0.783737 0.51805,-0.216804 1.18485,-0.575386 2.00041,-1.075747 0.60981,-0.396577 1.0426,-0.605978 1.29839,-0.628202 0.40496,-0.03518 0.61764,0.06446 0.63802,0.298921 m -4.46736,-3.960708 c -0.0167,-0.191823 -0.23258,-0.452249 -0.64771,-0.781278 -0.41515,-0.329011 -0.84652,-0.474079 -1.29413,-0.435205 -0.93785,0.08148 -1.99296,0.667074 -3.16535,1.756783 -1.01483,0.92571 -1.51114,1.516449 -1.48892,1.772218 0.0778,0.89522 0.48965,1.310425 1.23567,1.245614 0.76732,-0.06665 1.86182,-0.569766 3.28349,-1.50934 1.42165,-0.939561 2.11397,-1.622491 2.07695,-2.048792 m 15.08381,-0.114311 c 0.0292,0.684022 -0.24242,2.098249 -0.81478,4.242684 -0.66283,2.53376 -1.34694,3.815684 -2.05232,3.845777 -0.21376,0.0091 -0.34298,-0.510021 -0.38766,-1.55742 0.002,0.04275 0.28233,-0.911446 0.84153,-2.862598 0.57965,-1.973431 0.85352,-3.334219 0.82161,-4.082368 -0.021,-0.491627 -0.17041,-0.731518 -0.44828,-0.719672 -1.09016,0.04651 -2.38078,0.915319 -3.87188,2.606416 -1.49111,1.691108 -2.21341,3.081734 -2.1669,4.17188 0.0109,0.256507 -0.092,0.60353 -0.30893,1.041069 -0.21689,0.437541 -0.43222,0.66087 -0.64597,0.669989 -0.53439,0.0228 -0.81708,-0.329187 -0.84809,-1.055954 -0.0109,-0.256504 0.32321,-1.459256 1.00245,-3.608259 0.6997,-2.17128 1.03314,-3.641681 1.00031,-4.411207 -0.0164,-0.384749 0.25326,-0.588982 0.80903,-0.612701 0.64126,-0.02735 0.98195,0.429235 1.02208,1.369746 0.003,0.06414 -0.0559,0.195123 -0.17597,0.392966 -0.12096,0.176483 -0.18098,0.275408 -0.18007,0.296776 0.0232,0.04185 0.0562,0.06185 0.0989,0.06002 0.19237,-0.0082 0.79402,-0.462153 1.80495,-1.361863 1.01001,-0.921067 1.98527,-1.401667 2.9258,-1.441801 0.72676,-0.03099 1.19206,0.334615 1.3959,1.096827 0.0741,0.232404 0.13356,0.8723 0.17826,1.91969 m 10.89607,-0.02841 c 3.7e-4,0.684644 -0.33047,2.086194 -0.99253,4.204654 -0.76883,2.503633 -1.50626,3.755645 -2.21228,3.756038 -0.21396,1.17e-4 -0.32123,-0.523998 -0.3218,-1.572349 2e-5,0.04279 0.32042,-0.898763 0.9612,-2.824663 0.66215,-1.947301 0.99303,-3.295363 0.99262,-4.044192 -2.8e-4,-0.492075 -0.13949,-0.738039 -0.41761,-0.737893 -1.09115,6.14e-4 -2.41718,0.814357 -3.9781,2.441231 -1.56093,1.626885 -2.34109,2.985895 -2.34048,4.077033 1.4e-4,0.25674 -0.11734,0.599124 -0.35245,1.027152 -0.23511,0.428029 -0.45963,0.642103 -0.67358,0.642221 -0.53487,2.98e-4 -0.80251,-0.363267 -0.80292,-1.090695 -1.4e-4,-0.256737 0.38431,-1.444368 1.15335,-3.562895 0.79042,-2.139924 1.18542,-3.594997 1.18499,-4.365222 -2.1e-4,-0.385099 0.27781,-0.577808 0.83409,-0.578127 0.64184,-3.46e-4 0.96302,0.470163 0.96355,1.41153 3e-5,0.06419 -0.0641,0.192598 -0.19234,0.385216 -0.12828,0.171238 -0.19241,0.267551 -0.19239,0.288938 0.0214,0.04279 0.0535,0.06416 0.0963,0.06413 0.19255,-9.9e-5 0.81276,-0.428342 1.86064,-1.284729 1.04786,-0.877764 2.04248,-1.316912 2.98386,-1.317445 0.72742,-3.94e-4 1.17693,0.384465 1.34853,1.154577 0.0643,0.235317 0.0968,0.877146 0.0973,1.925489 m 13.64878,4.250607 c -0.045,0.897461 -0.83091,1.618538 -2.35773,2.163232 -1.41893,0.528682 -3.03653,0.7475 -4.85281,0.656453 -2.45733,-0.123181 -4.09783,-0.516032 -4.92148,-1.178552 -0.74034,-0.615498 -1.06926,-1.745918 -0.98678,-3.391264 0.0793,-1.581232 1.10137,-2.954543 3.06633,-4.119936 1.83353,-1.107699 3.67981,-1.614958 5.53884,-1.521779 0.44872,0.0225 0.91343,0.367126 1.39414,1.033866 0.50206,0.66783 0.73595,1.343629 0.70169,2.0274 -0.045,0.897466 -0.8929,1.786809 -2.54369,2.668032 -1.62945,0.882304 -3.07453,1.291854 -4.33524,1.228654 -0.19232,-0.0096 -0.48986,-0.05669 -0.89264,-0.141144 -0.40171,-0.105821 -0.65599,-0.161411 -0.76282,-0.16677 -0.19232,-0.0096 -0.29115,0.03896 -0.29651,0.1458 -0.0407,0.81199 0.38286,1.336634 1.27068,1.573932 0.29593,0.0791 1.20247,0.156678 2.71961,0.232727 1.08976,0.05463 2.14537,-0.06383 3.16681,-0.355376 0.54277,-0.144164 1.25222,-0.408505 2.12838,-0.793024 0.65817,-0.309752 1.11547,-0.458203 1.3719,-0.445352 0.40598,0.02036 0.60308,0.148055 0.59132,0.383101 m -3.88577,-4.532697 c 0.01,-0.192306 -0.16876,-0.479731 -0.53517,-0.862276 -0.36642,-0.38253 -0.77399,-0.585046 -1.22271,-0.607548 -0.94021,-0.04712 -2.0653,0.38918 -3.37528,1.308907 -1.13155,0.778733 -1.70375,1.296305 -1.7166,1.552716 -0.045,0.897465 0.30645,1.364939 1.05434,1.402425 0.76925,0.03856 1.9221,-0.310658 3.45858,-1.04767 1.53646,-0.737001 2.31541,-1.319186 2.33684,-1.746554"
         style="font-size:30.48776054px;font-style:normal;font-variant:normal;font-weight:normal;font-stretch:normal;text-align:start;line-height:125%;writing-mode:lr-tb;text-anchor:start;fill:#000000;fill-opacity:1;stroke:none;font-family:BethHand;-inkscape-font-specification:BethHand"
         transform="matrix(0.6652534,-0.00826757,0.00826757,0.6652534,246.67332,813.90712)" />
    </g>
  </g>
</svg>
