<?xml version="1.0" encoding="UTF-8" standalone="no"?>
<!-- Created with Inkscape (http://www.inkscape.org/) -->

<svg
   xmlns:dc="http://purl.org/dc/elements/1.1/"
   xmlns:cc="http://creativecommons.org/ns#"
   xmlns:rdf="http://www.w3.org/1999/02/22-rdf-syntax-ns#"
   xmlns:svg="http://www.w3.org/2000/svg"
   xmlns="http://www.w3.org/2000/svg"
   xmlns:sodipodi="http://sodipodi.sourceforge.net/DTD/sodipodi-0.dtd"
   xmlns:inkscape="http://www.inkscape.org/namespaces/inkscape"
   width="305.22427"
   height="108.02877"
   id="svg3203"
   version="1.1"
   inkscape:version="0.91 r"
   sodipodi:docname="ILArd-vaguecouleur_v0.svg">
  <defs
     id="defs3205" />
  <sodipodi:namedview
     id="base"
     pagecolor="#ffffff"
     bordercolor="#666666"
     borderopacity="1.0"
     inkscape:pageopacity="0.0"
     inkscape:pageshadow="2"
     inkscape:zoom="2.8"
     inkscape:cx="142.93214"
     inkscape:cy="41.036676"
     inkscape:document-units="px"
     inkscape:current-layer="layer1"
     showgrid="false"
     fit-margin-top="0"
     fit-margin-left="0"
     fit-margin-right="0"
     fit-margin-bottom="0"
     inkscape:window-width="1366"
     inkscape:window-height="716"
     inkscape:window-x="0"
     inkscape:window-y="0"
     inkscape:window-maximized="1" />
  <metadata
     id="metadata3208">
    <rdf:RDF>
      <cc:Work
         rdf:about="">
        <dc:format>image/svg+xml</dc:format>
        <dc:type
           rdf:resource="http://purl.org/dc/dcmitype/StillImage" />
        <dc:title></dc:title>
      </cc:Work>
    </rdf:RDF>
  </metadata>
  <g
     inkscape:label="Calque 1"
     inkscape:groupmode="layer"
     id="layer1"
     transform="translate(-238.81644,-398.34781)">
    <g
       id="g3409">
      <path
         inkscape:connector-curvature="0"
         sodipodi:nodetypes="csc"
         id="path4416"
         d="m 258.14724,463.34942 c 28.48837,19.89663 75.06457,23.9664 118.02322,12.66148 64.70525,-17.02768 109.88369,-32.55812 161.88625,-23.96639"
         style="fill:none;stroke:#000000;stroke-width:0.79134339px;stroke-linecap:butt;stroke-linejoin:miter;stroke-opacity:1" />
      <path
         inkscape:connector-curvature="0"
         sodipodi:nodetypes="czccscscscscscccccscscscscscz"
         d="m 243.642,448.41181 c 3.3078,1.29164 3.75695,2.08802 4.37154,2.61521 0.61459,0.5272 1.20223,0.95775 1.80336,1.43662 0.68891,0.60504 1.37781,1.21007 2.06672,1.81511 3.77089,3.38987 7.61619,6.71875 11.94631,9.38689 3.82257,2.35539 5.21911,2.892 9.35038,4.88665 11.45773,5.16121 23.67674,8.69108 36.14576,10.32579 3.11971,0.40901 6.26362,0.60552 9.39541,0.90826 14.70949,1.03822 29.44604,-0.24841 43.94181,-2.79024 9.93824,-1.74268 15.42321,-3.1866 25.29453,-5.50926 17.65198,-4.37708 35.0494,-9.69995 52.70344,-14.06947 12.23132,-3.02736 12.93182,-3.05328 25.11553,-5.57919 16.54612,-3.18671 33.36307,-5.03022 50.22536,-4.93102 2.42247,0.0143 4.84297,0.14188 7.26444,0.21282 5.24226,0.27439 10.47229,0.69381 15.68516,1.30851 4.9204,0.35697 5.23286,1.45525 5.05238,4.66044 -3.31624,2.84467 -6.35143,3.05777 -9.94777,2.1878 -5.78632,-1.35315 -11.69351,-2.12812 -17.59758,-2.73937 -2.29863,-0.15244 -4.59408,-0.36425 -6.89587,-0.45733 -16.2609,-0.65744 -32.53371,0.84238 -48.53142,3.7301 -11.93935,2.37339 -12.7671,2.41056 -24.76254,5.32175 -17.69553,4.29455 -35.11144,9.62633 -52.759,14.10355 -9.73535,2.35257 -15.9073,3.98596 -25.72299,5.80386 -14.82583,2.7458 -29.91328,4.27216 -44.99756,3.42745 -3.21149,-0.26229 -6.43281,-0.42369 -9.63447,-0.78684 -12.8634,-1.45905 -25.53336,-4.7268 -37.52691,-9.57877 -1.74847,-0.77095 -3.52129,-1.48886 -5.2454,-2.31285 -6.25477,-2.98927 -12.00463,-6.88856 -17.18624,-11.48657 -8.29137,-7.93502 -2.86219,-13.18153 0.44562,-11.8899 z"
         id="path4418"
         style="fill:#008000;fill-opacity:1;stroke:none" />
      <path
         inkscape:connector-curvature="0"
         id="text3211"
         d="m 299.43587,476.83724 c -1.15754,-0.0439 -1.70478,-0.89632 -1.64173,-2.55714 0.0592,-1.56015 0.56695,-2.32208 1.52319,-2.28578 0.5536,0.021 2.62945,-0.22778 6.22756,-0.74639 3.60001,-0.56892 6.00395,-0.83046 7.21184,-0.78461 0.0572,-1.50983 1.84545,-8.11997 5.36446,-19.83046 3.56929,-11.70852 5.38356,-18.34288 5.44282,-19.90308 -1.91248,-0.0726 -3.60228,-0.0359 -5.0694,0.10995 -1.46717,0.14594 -2.35172,0.21316 -2.65367,0.20166 -0.70461,-0.0267 -1.42098,-0.40671 -2.14914,-1.14 -0.67785,-0.73129 -1.0034,-1.44925 -0.97663,-2.15389 0.0592,-1.56011 1.01989,-2.30484 2.88203,-2.2342 0.35227,0.0134 0.8546,0.0577 1.50697,0.13281 0.65233,0.0752 1.12948,0.11853 1.43147,0.12995 1.05686,0.0402 2.1147,0.0551 3.17351,0.0449 1.1091,-0.008 2.01595,9.8e-4 2.72057,0.0277 0.40259,0.0153 0.88357,-0.042 1.44293,-0.17202 0.60964,-0.12801 0.9648,-0.19012 1.06549,-0.18635 0.25161,0.01 0.37265,0.1402 0.36313,0.39179 -0.007,0.20136 3.12538,0.6479 9.39919,1.33963 5.87302,0.62621 9.36315,0.96031 10.47041,1.0023 0.90585,0.0344 1.65121,0.31474 2.23608,0.8409 0.58478,0.52625 0.86765,1.04099 0.84859,1.54422 -0.0401,1.05693 -1.57007,1.52805 -4.58968,1.41337 -2.36545,-0.0898 -5.68517,-0.26619 -9.95917,-0.52929 -4.27215,-0.31334 -6.78567,-0.48437 -7.54055,-0.51307 -0.0325,0.85561 -1.84425,6.75926 -5.43521,17.71096 -3.54068,10.95366 -5.35687,17.63834 -5.44855,20.05406 -0.0344,0.90591 0.12453,1.36554 0.47685,1.37891 1.15752,0.044 2.64887,-0.0758 4.47406,-0.35935 1.82516,-0.2835 3.31651,-0.40329 4.47407,-0.35935 2.71767,0.10318 4.06314,0.50706 4.03643,1.21165 -0.0401,1.05688 -2.34407,2.00262 -6.91175,2.83722 -3.80709,0.71227 -6.64168,1.03306 -8.50379,0.96237 -0.60394,-0.0229 -3.03879,0.38864 -7.30451,1.2347 -4.26575,0.84606 -7.12837,1.24139 -8.58787,1.18598 m 81.15827,-0.78568 c -1.14078,-0.13292 -5.00815,-0.94821 -11.6021,-2.44587 -4.53884,-1.04472 -8.52624,-1.30699 -11.96218,-0.7868 -0.59758,0.0905 -1.22688,0.64418 -1.88791,1.66114 -0.61125,1.00942 -1.46463,1.59706 -2.56015,1.76292 -1.74288,0.26387 -2.81411,-0.92381 -3.21368,-3.56302 -0.25632,-1.69308 0.0139,-2.59993 0.81063,-2.72056 0.99593,-0.15078 2.1962,-5.68097 3.6008,-16.5906 1.45599,-11.57955 1.72787,-20.38202 0.81565,-26.40745 -0.0603,-0.39832 0.0997,-0.85552 0.48001,-1.37159 0.43011,-0.52351 0.84435,-0.81544 1.24273,-0.8758 0.49796,-0.0753 1.13321,0.0832 1.90577,0.47554 0.77252,0.39247 1.19648,0.83766 1.27189,1.33558 0.64834,4.28255 0.64319,9.6318 -0.0155,16.04778 -0.31723,2.95152 -1.07984,8.00795 -2.28784,15.16931 -0.84713,5.17111 -1.16892,8.42892 -0.96536,9.77341 2.7388,-0.41463 6.67788,0.0332 11.81725,1.3436 5.18915,1.30284 8.58047,1.83363 10.17398,1.59238 0.49794,-0.0754 0.9597,-0.2217 1.38528,-0.43894 0.46778,-0.27457 0.77638,-0.42317 0.9258,-0.44579 1.64326,-0.24878 2.65337,0.87173 3.03036,3.36156 0.2789,1.84247 -0.19277,2.93264 -1.41504,3.2705 -0.0499,0.008 -0.56664,-0.0416 -1.55044,-0.1473 m 33.44273,-34.15595 c 0.0475,0.1958 -0.40779,0.66904 -1.36577,1.41971 -0.92096,0.6899 -1.60168,1.08828 -2.04215,1.19514 -0.73419,0.17815 -1.03094,3.33376 -0.89029,9.46682 0.10788,5.57097 0.29838,8.91929 0.57154,10.045 -2.74087,0.66503 -4.26568,0.36127 -4.57442,-0.91128 -0.2494,-1.02781 -0.12612,-3.83038 0.36988,-8.4077 0.53302,-4.63812 0.6986,-7.37321 0.49673,-8.20528 -0.095,-0.39152 -0.26488,-0.55761 -0.50958,-0.49826 -6.67258,2.1891 -10.79197,3.47364 -12.35816,3.85363 0.0713,0.29368 -1.11682,7.78566 -3.56419,22.47594 -1.1257,0.27313 -1.68856,0.4097 -1.68856,0.4097 -0.87955,0.006 -1.45589,-0.5537 -1.72903,-1.6794 -0.20188,-0.83205 0.28222,-5.4583 1.45229,-13.87878 1.21902,-8.43233 1.77509,-12.86874 1.66822,-13.30926 -0.11876,-0.48942 -0.17287,-4.12996 -0.16234,-10.92166 0.0476,-6.85244 -0.006,-10.59682 -0.1602,-11.23314 0.73415,-0.17808 1.77386,-0.37852 3.1191,-0.60132 0.46313,1.90886 0.69288,4.88489 0.68923,8.92811 -0.0156,3.99435 0.0242,6.18728 0.11923,6.5788 0.0608,0.0371 0.12162,0.0742 0.18245,0.1112 0.0371,-0.0608 0.0801,-0.0971 0.12903,-0.10904 0.086,-0.0727 0.66039,-1.87044 1.72316,-5.39333 1.29993,-4.25409 2.48956,-7.57451 3.56889,-9.96127 1.65008,-3.66531 3.25823,-5.688 4.82445,-6.06806 1.95774,-0.47497 3.5007,1.61236 4.62889,6.26198 0.28499,1.1747 0.55596,2.61188 0.81292,4.31155 0.29397,1.63895 0.46473,2.55628 0.51225,2.75202 0.16623,0.68525 0.24521,2.50589 0.23691,5.46191 -0.008,2.95609 0.20126,5.31511 0.62881,7.07706 0.0119,0.049 0.54285,0.10152 1.59301,0.15765 1.03823,0.007 1.6108,0.23109 1.7177,0.67156 m -10.1651,-21.71011 c -0.78312,0.19006 -2.41684,4.13648 -4.90118,11.83929 -2.44729,7.64207 -3.54624,11.97699 -3.29685,13.00479 2.25141,-0.54625 5.88658,-1.58374 10.9055,-3.11248 0.0238,0.0979 -0.0613,-2.60226 -0.25523,-8.10055 -0.20581,-5.54716 -0.56995,-9.39752 -1.09245,-11.5511 -0.36817,-1.51721 -0.82142,-2.21053 -1.35979,-2.07995 m 35.09185,18.98246 c 0.19956,0.72864 0.13631,1.45093 -0.18976,2.16685 -0.32609,0.71597 -0.87772,1.18039 -1.65491,1.39326 -1.21438,0.33265 -2.04776,-0.3268 -2.50013,-1.97836 -0.18629,-0.68002 -0.36189,-1.70241 -0.52683,-3.06717 -0.11638,-1.37802 -0.23444,-2.28563 -0.35417,-2.72283 -0.18629,-0.68001 -0.47373,-0.96682 -0.86232,-0.8604 -2.42874,0.6653 -4.73518,4.06469 -6.91933,10.19818 -2.14023,5.91261 -2.81118,10.32615 -2.01285,13.24062 0.33263,1.21437 0.39979,2.03148 0.20148,2.45134 -0.14974,0.40655 -0.56463,0.70296 -1.24467,0.88924 -0.43717,0.11974 -0.97181,-0.021 -1.60391,-0.42228 -0.63211,-0.40127 -1.03465,-0.91764 -1.20762,-1.54911 0.0266,0.0971 0.0171,-2.5112 -0.0286,-7.82507 -0.0457,-5.31385 -0.30129,-8.82083 -0.76698,-10.52096 -0.55883,-2.04012 0.20612,-3.34625 2.29483,-3.91841 1.21436,-0.33261 2.02778,0.25398 2.44025,1.75977 0.0133,0.0486 0.0536,0.48144 0.1207,1.29853 0.0491,0.56096 0.17097,0.81481 0.36526,0.76157 0.0972,-0.0266 0.50475,-0.92153 1.22281,-2.68481 0.88109,-2.12122 1.74719,-3.82059 2.59832,-5.09814 1.30093,-1.9229 2.7286,-3.09725 4.283,-3.52305 1.65153,-0.45235 3.03517,0.50024 4.15093,2.85776 0.41182,0.93161 1.1433,3.3161 2.19444,7.15347 m 34.5279,-37.40387 c 0.0885,0.34132 -0.41898,5.9099 -1.52231,16.70574 -1.11601,10.74717 -1.28221,17.63205 -0.49856,20.65468 0.31594,1.21882 -0.45236,2.06836 -2.30492,2.54863 -1.21884,0.31599 -1.99886,-0.18418 -2.3401,-1.50051 -0.13905,-0.53626 -0.2564,-1.39032 -0.35207,-2.5622 -0.0596,-1.23323 -0.15258,-2.09362 -0.27894,-2.58116 -1.31448,-5.07022 -4.28743,-7.00498 -8.91889,-5.80431 -2.63263,0.68253 -5.19304,2.64704 -7.68123,5.89353 -2.45209,3.18513 -3.42535,5.75273 -2.91979,7.70281 0.49291,1.90135 2.15228,3.08406 4.9781,3.54813 2.33648,0.38282 4.79666,0.2393 7.38054,-0.43057 3.16888,-0.82153 5.13162,-1.27833 5.8882,-1.37042 2.04938,-0.32318 3.20047,0.003 3.45327,0.97778 0.16428,0.63379 -0.12914,1.30819 -0.88027,2.02321 -0.75117,0.71503 -1.66302,1.21157 -2.73556,1.48962 -12.96811,3.36197 -20.34954,1.58154 -22.14427,-5.34129 -0.85945,-3.31514 0.1716,-6.96432 3.09317,-10.94754 2.95767,-4.04458 6.45972,-6.59139 10.50617,-7.64045 1.80382,-0.46761 3.57425,-0.56239 5.31129,-0.28434 1.13752,0.17338 2.34369,0.51105 3.61848,1.013 1.10321,0.44242 1.70358,0.65098 1.80112,0.62567 0.14623,-0.0379 0.18144,-0.2031 0.10563,-0.49564 -0.26544,-1.02377 0.0704,-4.54476 1.00765,-10.56297 0.98591,-6.03077 1.13763,-10.36249 0.45515,-12.99516 -0.60669,-2.34006 -0.42251,-3.63651 0.55256,-3.88934 1.5113,-0.39175 2.63079,-0.1877 3.35848,0.61214 0.38276,0.47314 0.73846,1.34346 1.0671,2.61096"
         style="font-style:normal;font-variant:normal;font-weight:normal;font-stretch:normal;font-size:70.08200073px;line-height:125%;font-family:BethHand;-inkscape-font-specification:BethHand;text-align:start;writing-mode:lr-tb;text-anchor:start;fill:#000000;fill-opacity:1;stroke:none" />
    </g>
  </g>
</svg>
